<?xml version="1.0" standalone="no"?>
<!DOCTYPE svg PUBLIC "-//W3C//DTD SVG 20010904//EN"
 "http://www.w3.org/TR/2001/REC-SVG-20010904/DTD/svg10.dtd">
<svg version="1.0" xmlns="http://www.w3.org/2000/svg"
 width="501.000000pt" height="501.000000pt" viewBox="0 0 501.000000 501.000000"
 preserveAspectRatio="xMidYMid meet">
<metadata>
Created by potrace 1.14, written by Peter Selinger 2001-2017
</metadata>
<g transform="translate(0.000000,501.000000) scale(0.100000,-0.100000)"
fill="#000000" stroke="none">
<path d="M687 5003 c-1 -1 -45 -3 -97 -4 -259 -8 -468 -164 -557 -416 l-28
-78 -1 -1975 c0 -1531 2 -1990 12 -2040 44 -230 211 -411 436 -470 71 -18 136
-19 2058 -19 1697 0 1993 2 2040 15 207 54 372 217 436 429 17 57 18 164 19
2025 1 1562 -1 1980 -12 2040 -30 174 -156 345 -313 423 -151 74 2 69 -2103
71 -1039 0 -1889 0 -1890 -1z"/>
</g>
</svg>
